<?xml version="1.0" encoding="UTF-8"?>
<svg width="284px" height="123px" viewBox="0 0 284 123" version="1.1" xmlns="http://www.w3.org/2000/svg" xmlns:xlink="http://www.w3.org/1999/xlink">
    <!-- Generator: Sketch 52.5 (67469) - http://www.bohemiancoding.com/sketch -->
    <title>Group 5</title>
    <desc>Created with Sketch.</desc>
    <g id="Page-1" stroke="none" stroke-width="1" fill="none" fill-rule="evenodd">
        <g id="Artboard" transform="translate(-608.000000, -76.000000)">
            <g id="Group-5" transform="translate(610.000000, 77.000000)">
                <path d="M2.2569059,83.3579561 L1.19898126,72.1201545 L1.83373604,72.1201545 C4.09064194,72.1201545 10.8613596,71.5752914 15.4456997,71.0304283 C16.5741527,63.8791 17.0678508,59.8607346 17.0678508,57.5450664 L17.0678508,56.3872323 L29.8334748,57.5450664 C29.410305,58.9072242 29.410305,58.9072242 28.7050219,62.9255896 C28.1407954,66.0585525 27.6470972,68.6466522 27.364984,70.2131336 C28.5639653,70.1450258 29.410305,70.0769179 30.3977013,70.0769179 C34.7704565,70.0769179 38.0147587,70.9623204 40.4127212,72.8012334 C44.009665,75.5936568 45.4202312,79.748238 45.4202312,87.4444294 C45.4202312,98.06926 43.7980801,106.923285 40.9769477,111.62273 C39.9895514,113.325427 38.2263436,114.8238 36.4631359,115.709203 C35.0525697,116.322174 33.2188337,116.662713 30.9619278,116.662713 C27.7176255,116.662713 24.5438516,116.11785 19.7479266,114.8238 C19.9595115,112.91678 19.9595115,112.099485 19.9595115,110.873543 C19.9595115,107.876796 19.6773983,106.037883 18.9015869,102.768704 C22.9217005,104.267078 26.5186443,105.220588 28.5639653,105.220588 C30.0450598,105.220588 30.9619278,104.335186 31.7377392,102.155733 C32.7956638,99.1589862 33.6420035,92.2119816 33.6420035,87.0357821 C33.6420035,84.1071429 33.2188337,82.4725535 32.3019657,81.5190431 C31.5261542,80.6336406 30.5387579,80.361209 28.0702671,80.361209 C27.4355123,80.361209 26.7302292,80.361209 25.2491347,80.4974248 C23.9796252,86.2184874 22.4985307,91.1903632 20.2416248,97.456289 C17.9847189,103.790323 16.8562659,106.514638 12.765624,115.028124 C12.2013975,116.185958 12.0603409,116.526498 11.637171,117.480008 L0,111.554622 C4.51381179,105.765451 10.4381898,92.2119816 13.2593221,81.4509352 C8.25181219,82.0639062 4.65486841,82.7449851 2.2569059,83.3579561 Z M84.8481682,71.3028599 L85.6239796,59.7245188 C90.2083197,60.8823529 98.8127735,61.5634318 108.96885,61.5634318 C118.13753,61.5634318 124.908248,61.1547845 128.57572,60.3374898 L128.857833,70.7579967 C124.485078,72.8012334 115.598511,78.2498645 109.250963,82.813093 L100.575981,77.0239225 C102.621302,75.6617647 102.762359,75.5936568 106.147718,73.6185281 C107.064586,73.0736649 107.135114,73.0055571 107.840397,72.6650176 C108.334095,72.3925861 108.404624,72.3925861 108.96885,72.0520466 C106.641416,72.2563703 105.583491,72.3244782 103.185529,72.3244782 C97.8253771,72.3244782 94.2989617,72.1201545 87.316659,71.5071835 C86.0471495,71.3709677 85.8355646,71.3709677 84.8481682,71.3028599 Z M91.0546594,84.652006 L100.011755,90.6455001 C95.8505845,93.7103551 93.6642069,96.5708864 93.6642069,99.0227704 C93.6642069,102.564381 98.248547,104.130862 108.96885,104.130862 C117.29119,104.130862 127.376739,102.768704 132.031607,100.997899 L132.877947,114.074614 C130.973682,114.142722 130.973682,114.142722 125.895644,114.755693 C119.971266,115.504879 114.117417,115.845419 108.334095,115.845419 C100.364396,115.845419 94.7221315,115.096232 90.4199047,113.393535 C84.1428851,110.941651 80.9691112,106.78707 80.9691112,101.066007 C80.9691112,95.004405 84.0723568,90.0325291 91.0546594,84.652006 Z M155.023836,70.5536731 L154.671194,59.3158715 C156.9281,59.7926267 159.396591,59.8607346 168.917913,59.8607346 C174.489649,59.8607346 181.96565,59.5201952 186.54999,59.1115478 C189.018481,58.8391163 189.300594,58.7710084 190.640632,58.2261453 L196.706067,66.7396313 C194.801802,67.8293575 193.955463,68.5785443 186.197349,75.457441 C183.305688,78.0455408 178.580291,81.9957983 176.464442,83.5622798 C179.849801,82.6768772 181.96565,82.4044456 185.209952,82.4044456 C191.416444,82.4044456 196.847123,84.039035 200.514595,86.9676742 C203.547313,89.4195581 205.239992,93.3017078 205.239992,97.7968284 C205.239992,103.994646 202.136747,109.170846 196.212369,112.848672 C191.5575,115.709203 185.280481,117.139469 177.522367,117.139469 C171.739045,117.139469 166.661007,116.526498 160.666101,115.16434 C160.454516,109.98814 160.101874,107.876796 158.62078,102.90492 C164.968328,105.084372 171.386404,106.242207 176.887612,106.242207 C185.985764,106.242207 192.192255,102.973028 192.192255,98.1373679 C192.192255,94.1871103 188.313198,91.93955 181.54248,91.93955 C174.560178,91.93955 167.78946,93.9827867 160.877686,98.2054757 C158.19761,99.8400651 156.50493,101.134115 154.600666,102.973028 L147.265722,93.0292762 C153.542741,89.8282055 166.378894,79.4076986 176.887612,69.1234074 C173.784366,69.5320548 166.308365,70.00881 161.230327,70.0769179 C158.056553,70.1450258 156.434402,70.2812415 155.023836,70.5536731 Z M254.186639,55.1612903 L265.964866,63.1980211 C264.483772,64.0834237 263.143734,65.1731499 256.23196,71.1666441 C251.294978,75.2531174 245.300072,79.8163459 239.728335,83.6984955 C237.824071,85.0606533 237.400901,85.4693006 237.400901,86.0822716 C237.400901,86.8995663 237.400901,86.8995663 244.030562,91.5990106 C251.083393,96.5708864 258.277281,102.087625 265.541697,108.353551 C265.894338,108.625983 266.67015,109.238954 267.728074,110.056248 L257.642526,120 C254.045582,114.960016 244.030562,106.310314 229.854372,95.8898075 C226.327957,93.2335999 225.058447,92.0076579 224.141579,90.3049607 C223.506824,89.0109108 223.083654,87.3082136 223.083654,85.8098401 C223.083654,83.426064 224.000522,81.1785037 225.693202,79.3395907 C226.680598,78.2498645 227.738523,77.3644619 232.111278,74.1633912 C242.761053,66.5353077 251.718148,58.7710084 254.186639,55.1612903 Z M257.219356,76.2066278 L263.707961,73.0055571 C266.388036,75.9341963 268.856527,79.4076986 270.901848,83.0855245 L264.413244,86.4909189 C262.015281,82.1320141 260.040488,79.2714828 257.219356,76.2066278 Z M266.599621,71.5071835 L272.735584,68.4423285 C275.204075,71.0304283 277.460981,74.0271754 280,78.2498645 L273.72298,81.587151 C271.183961,77.2282461 269.068112,74.1633912 266.599621,71.5071835 Z" id="かころぐ" stroke="#42A2DE" stroke-width="2" fill="#FFFFFF"></path>
                <g id="Group-4" transform="translate(167.598566, 14.516129)" fill-rule="nonzero">
                    <g id="Group" transform="translate(36.747312, 24.500000) scale(-1, 1) translate(-36.747312, -24.500000) translate(4.247312, 0.000000)">
                        <path d="M54.3883345,0.171843781 C49.5479809,1.05058894 48.5216355,4.75936368 47.077154,8.62035435 C45.6326724,12.481345 23.7650968,24.0186872 19.2712852,27.0812697 C16.2754107,29.1229914 9.97157102,31.5979149 0.359766,34.5060402 C3.29348372,36.0335679 5.28962246,36.7973318 6.34818222,36.7973318 C7.93602186,36.7973318 18.3659745,33.1471964 20.5807557,33.1471964 C22.7955369,33.1471964 32.4065194,37.8984638 43.1702735,37.8984638 C52.7703452,37.8984638 61.7069677,33.1471964 63.8986125,27.0812697 C66.7959109,19.0622697 60.8901898,14.1112797 62.4816722,10.9088143 C66.1380867,3.55118329 59.2286882,-0.706901375 54.3883345,0.171843781 Z" id="Path-2" stroke="#42A2DE" stroke-width="2" fill="#FFFFFF"></path>
                        <path d="M56.5357972,5.19796771 C56.5357972,2.91526645 59.0115032,3.59859303 59.0115032,5.19796771 C59.0115032,6.79734239 56.5357972,7.48066898 56.5357972,5.19796771 Z" id="Path-3" fill="#42A2DE"></path>
                        <g id="Group-2" transform="translate(42.151074, 38.384992)" stroke="#42A2DE" stroke-linecap="round" stroke-width="1.5">
                            <path d="M1.7965099,0.12056918 L5.01531916,5.5628858" id="Path-4" stroke-linejoin="round"></path>
                            <path d="M5.17781865,5.55147533 L9.23523946,3.19874936" id="Path-5"></path>
                            <path d="M5.18260624,5.53602998 L10.8680616,3.9984367" id="Path-5"></path>
                            <path d="M5.18260624,5.70214559 L10.9592792,7.10565935" id="Path-5"></path>
                            <path d="M5.18260624,5.70214559 L0,7.9968734" id="Path-6"></path>
                        </g>
                    </g>
                    <g id="Group-3" transform="translate(0.000000, 1.935484)" fill="#42A2DE">
                        <path d="M7.54034412,1.0408817 L5.60994904,4.35737361 C4.02669002,3.55969601 2.45675069,2.45419871 0.90013107,1.0408817 C1.16525605,0.430064914 3.3786604,0.430064914 7.54034412,1.0408817 Z" id="Path"></path>
                        <path d="M7.41062948,3.66383713 L5.72110173,6.65356591 C4.09122788,5.76658295 2.45323442,4.58850921 0.807121361,3.11934471 C1.0283842,2.56129643 3.22955357,2.7427939 7.41062948,3.66383713 Z" id="Path" transform="translate(4.108875, 4.728545) scale(1, -1) rotate(-26.000000) translate(-4.108875, -4.728545) "></path>
                    </g>
                </g>
                <path d="M70.0300459,84.4762475 L71.8892249,94.5392515 L62.7687612,90.9962198 L43.0891017,64.8246598 C42.5350396,62.4815398 43.0773409,60.6978957 44.7160058,59.4737273 C46.3546707,58.249559 48.4056153,58.249559 50.8688396,59.4737273 L70.0300459,84.4762475 Z" id="Path-7" fill="#FFFFFF" fill-rule="nonzero" transform="translate(57.384162, 76.547426) rotate(4.000000) translate(-57.384162, -76.547426) "></path>
                <path d="M73.164208,60.0661054 C73.8673365,60.7223586 74.394675,61.4078987 74.7462392,62.122746 C75.0978035,62.8375933 75.2853016,63.5582892 75.3087392,64.2848554 C75.3321768,65.0582967 75.168116,65.8141485 74.8165517,66.5524335 C74.4649875,67.2907184 73.9493676,68.0114143 73.2696767,68.7145429 C72.9415501,69.0661071 71.6290632,70.378594 69.3321767,72.6520429 C67.0352902,74.9254917 64.5567994,77.3805453 61.8966299,80.0172772 C59.2364603,82.6540092 56.7931254,85.0739068 54.5665517,87.2770429 C52.3399781,89.4801789 51.1212403,90.6871981 50.9103017,90.8981366 C50.8399889,90.9684495 50.7638178,91.0270426 50.6817861,91.0739179 C50.5997544,91.1207931 50.5118647,91.155949 50.4181142,91.1793866 C50.0899876,91.2731371 49.3985883,91.4899318 48.3438955,91.8297772 C47.2892027,92.1696227 46.2052292,92.5153224 45.0919424,92.8668866 C43.9786555,93.2184509 42.9767124,93.5407133 42.086083,93.8336835 C41.1954535,94.1266537 40.7384268,94.2731366 40.7149892,94.2731366 C40.668114,94.2965742 40.6153801,94.3141522 40.5567861,94.325871 C40.4981921,94.3375898 40.4337396,94.3434491 40.3634267,94.3434491 C40.222801,94.3434491 40.0821774,94.3141525 39.9415517,94.2555585 C39.800926,94.1969644 39.6837397,94.1090747 39.5899892,93.9918866 C39.4259259,93.8512609 39.3204582,93.6754814 39.273583,93.4645429 C39.2267077,93.2536043 39.2267077,93.0426689 39.273583,92.8317304 C39.2970206,92.8082927 39.4376442,92.368844 39.695458,91.513371 C39.9532718,90.657898 40.2520969,89.6676735 40.5919424,88.5426679 C40.9317878,87.4176622 41.2599095,86.3219701 41.5763174,85.2555585 C41.8927252,84.1891469 42.1095199,83.4215765 42.226708,82.9528241 C42.2735832,82.8590736 42.3204577,82.7711839 42.367333,82.6891522 C42.4142082,82.6071206 42.4728014,82.5309495 42.5431142,82.4606366 L53.4415517,71.5621991 C56.1837529,68.8199979 58.7208369,66.2770546 61.0528799,63.9332929 C63.3849228,61.5895311 64.6329572,60.3473561 64.7970205,60.2067304 C65.0313966,59.9723542 65.5352979,59.5914986 66.3087392,59.0641522 C67.0821806,58.5368058 68.0313899,58.2731366 69.1563955,58.2731366 C69.8829616,58.2731366 70.5802203,58.4254788 71.2481924,58.7301679 C71.9161644,59.0348569 72.5548299,59.4801649 73.164208,60.0661054 Z M64.445458,63.7926679 C63.34389,64.8707982 61.937654,66.2653156 60.226708,67.9762616 C58.5157619,69.6872077 56.7521077,71.4567212 54.9356924,73.2848554 C53.119277,75.1129895 51.37906,76.8590658 49.7149892,78.5231366 L45.742333,82.4957929 C46.2110853,82.6832938 46.7325645,82.9528224 47.3067861,83.3043866 C47.8810077,83.6559509 48.46108,84.1246962 49.0470205,84.7106366 C49.5157728,85.2028266 49.908347,85.7008685 50.2247549,86.2047772 C50.5411627,86.708686 50.7931133,87.171572 50.9806142,87.5934491 C51.9649941,86.6090692 53.2833403,85.3024416 54.9356924,83.6735272 C56.5880444,82.0446128 58.3165427,80.3336924 60.1212392,78.5407147 C61.9259358,76.747737 63.6778714,75.00752 65.3770986,73.3200116 C67.0763258,71.6325032 68.4767025,70.2497045 69.5782705,69.1715741 C69.5548329,68.9840732 69.4200686,68.5446244 69.1739736,67.8532147 C68.9278786,67.161805 68.453274,66.4645464 67.7501455,65.7614179 C67.047017,65.081727 66.3907735,64.601263 65.7813955,64.3200116 C65.1720174,64.0387602 64.7267094,63.8629807 64.445458,63.7926679 Z M44.195458,84.3942304 C43.9376442,85.2614222 43.5802259,86.4098482 43.1231924,87.8395429 C42.6661588,89.2692375 42.2735846,90.5114126 41.945458,91.5661054 C43.047026,91.2145411 44.324357,90.7926703 45.7774892,90.3004804 C47.2306215,89.8082904 48.3438916,89.4332941 49.117333,89.1754804 C49.0001449,88.8239161 48.8126468,88.3903267 48.554833,87.8746991 C48.2970192,87.3590715 47.9220229,86.8551703 47.429833,86.3629804 C46.7735797,85.7067271 46.1524922,85.2321224 45.5665517,84.9391522 C44.9806113,84.646182 44.5235846,84.4645432 44.195458,84.3942304 Z M71.617333,67.0973554 C72.0860853,66.628603 72.4376443,66.1598577 72.6720205,65.6911054 C72.9063966,65.222353 73.023583,64.777045 73.023583,64.3551679 C73.023583,63.9332907 72.9005373,63.4997013 72.6544424,63.0543866 C72.4083474,62.6090719 72.0509291,62.1637638 71.5821767,61.7184491 C71.2071749,61.3434472 70.8146007,61.0622 70.4044424,60.8746991 C69.9942841,60.6871982 69.5782726,60.5934491 69.1563955,60.5934491 C68.4298293,60.5934491 67.8028825,60.7809472 67.2755361,61.1559491 C66.7481897,61.530951 66.4610832,61.753605 66.414208,61.8239179 L66.2384267,61.9996991 C66.6837415,62.1872 67.175924,62.4508693 67.7149892,62.7907147 C68.2540544,63.1305602 68.8048302,63.5817275 69.367333,64.1442304 C69.9063982,64.6832956 70.3399876,65.2340713 70.6681142,65.7965741 C70.9962409,66.3590769 71.2423322,66.8746968 71.4063955,67.3434491 C71.4532707,67.2965739 71.4942859,67.2496993 71.5294424,67.2028241 C71.5645988,67.1559489 71.5938954,67.120793 71.617333,67.0973554 Z" id="Pencil---simple-line-icons" fill="#42A2DE" transform="translate(57.274682, 76.308293) rotate(-77.000000) translate(-57.274682, -76.308293) "></path>
                <path d="M146.505563,11.9928175 C146.505563,12.0381807 146.508518,12.080708 146.51443,12.1204007 C146.520342,12.1600934 146.523297,12.2026207 146.523297,12.2479839 C146.523297,12.9284308 146.215896,13.5068021 145.601085,13.9831149 C144.986274,14.4594278 144.247329,14.6975806 143.384228,14.6975806 C142.521127,14.6975806 141.782182,14.4594278 141.167371,13.9831149 C140.552559,13.5068021 140.245158,12.9284308 140.245158,12.2479839 C140.245158,11.5675369 140.552559,10.9891657 141.167371,10.5128528 C141.782182,10.03654 142.521127,9.7983871 143.384228,9.7983871 C143.762573,9.7983871 144.120223,9.8465847 144.457187,9.94298135 C144.794151,10.039378 145.098596,10.1726302 145.370532,10.3427419 L145.370532,1.27583165 L135.72277,3.67439516 L135.72277,14.765625 C135.72277,14.7996473 135.725726,14.8336692 135.731637,14.8676915 C135.737549,14.9017139 135.740505,14.9357357 135.740505,14.9697581 C135.740505,15.650205 135.433104,16.2285762 134.818292,16.7048891 C134.203481,17.181202 133.464536,17.4193548 132.601435,17.4193548 C131.738335,17.4193548 130.99939,17.181202 130.384578,16.7048891 C129.769767,16.2285762 129.462366,15.650205 129.462366,14.9697581 C129.462366,14.2893111 129.769767,13.7109399 130.384578,13.234627 C130.99939,12.7583142 131.738335,12.5201613 132.601435,12.5201613 C132.979781,12.5201613 133.33743,12.5683589 133.674394,12.6647555 C134.011358,12.7611522 134.315803,12.8944044 134.587739,13.0645161 L134.587739,3.33417339 C134.587739,3.28881026 134.593651,3.24344781 134.605474,3.19808468 C134.617297,3.15272155 134.635032,3.1130294 134.658679,3.07900706 C134.682325,2.9882808 134.729618,2.91173166 134.800557,2.84935736 C134.871497,2.78698306 134.954259,2.74445576 135.048845,2.72177419 L145.65429,0.0680443548 C145.689759,0.0453627898 145.73114,0.0283518712 145.778434,0.0170110887 C145.825727,0.0056703062 145.878931,0 145.938047,0 C146.079927,0 146.201114,0.0425272965 146.301612,0.127583165 C146.40211,0.212639034 146.464181,0.317539699 146.487828,0.442288306 C146.499651,0.476310654 146.505563,0.507497338 146.505563,0.535849294 L146.505563,11.9928175 Z" id="Music-tone-alt---simple-line-icons" stroke="#42A2DE" stroke-width="0.5" fill="#42A2DE"></path>
                <path d="M155.143809,12.9307212 C156.283809,12.9307212 157.003809,13.1707212 158.473809,14.0257212 C159.658809,14.7157212 160.438809,15.0757212 161.323809,15.0757212 C162.298809,15.0757212 163.093809,14.5357212 163.783809,13.6057212 C163.903809,13.4407212 164.068809,13.3807212 164.233809,13.3807212 C164.398809,13.3807212 164.563809,13.4407212 164.698809,13.5607212 C164.863809,13.6807212 164.968809,13.8757212 164.968809,14.0557212 C164.968809,14.1757212 164.923809,14.2957212 164.833809,14.4157212 C163.858809,15.5857212 162.778809,16.3357212 161.293809,16.3357212 C160.153809,16.3357212 159.328809,16.0357212 157.828809,15.1357212 C156.583809,14.3857212 156.013809,14.1907212 155.173809,14.1907212 C154.183809,14.1907212 153.373809,14.8357212 152.743809,15.6007212 C152.608809,15.7507212 152.458809,15.8107212 152.308809,15.8107212 C152.128809,15.8107212 151.948809,15.7357212 151.813809,15.6157212 C151.663809,15.4807212 151.573809,15.3307212 151.573809,15.1507212 C151.573809,15.0307212 151.618809,14.8807212 151.738809,14.7457212 C152.563809,13.7257212 153.823809,12.9307212 155.143809,12.9307212 Z" id="〜" stroke="#42A2DE" stroke-width="0.5" fill="#42A2DE" transform="translate(158.271309, 14.633221) rotate(21.000000) translate(-158.271309, -14.633221) "></path>
            </g>
        </g>
    </g>
</svg>